<svg width="123" height="48" viewBox="0 0 123 48" fill="none" xmlns="http://www.w3.org/2000/svg">
<g id="Frame" clip-path="url(#clip0_8_12)">
<g id="Group">
<path id="Vector" d="M50.6604 0.0282924L48.7173 1.57257L49.8995 3.06147L51.8426 1.51719L50.6604 0.0282924Z" fill="#D81923"/>
<path id="Vector_2" d="M51.22 11.3623L50.0374 9.87357L47.8218 11.6346C47.4706 11.1088 47.0955 10.601 46.7025 10.1082L48.0064 9.07172L46.8242 7.58299L45.4532 8.6725C45.0773 8.27542 44.6911 7.8886 44.2869 7.52016L48.5195 4.15588L47.3373 2.66716L42.795 6.27763C39.0414 3.40618 34.3521 1.6969 29.262 1.6969C16.9424 1.6969 6.95497 11.6884 6.95497 24.0141C6.95497 27.2874 7.66503 30.393 8.93049 33.194L3.72681 37.3302L4.90896 38.8189L9.80546 34.9272C10.0738 35.405 10.3579 35.8726 10.6595 36.3279L8.62929 37.9414L9.81144 39.4301L11.7788 37.8662C12.1715 38.3615 12.5837 38.8394 13.0161 39.2989L10.1327 41.5903L11.3149 43.0791L14.385 40.6389C18.3326 44.1767 23.5448 46.3309 29.2616 46.3309C41.5812 46.3309 51.5686 36.339 51.5686 24.0137C51.5686 20.119 50.5693 16.4589 48.8164 13.272L51.22 11.3623Z" fill="#D81923"/>
<path id="Vector_3" d="M52.8732 7.62203L51.2148 8.94L52.3971 10.4289L54.0554 9.11093L52.8732 7.62203Z" fill="#D81923"/>
<path id="Vector_4" d="M53.4006 2.3591L48.2041 6.48895L49.3861 7.97759L54.5826 3.84773L53.4006 2.3591Z" fill="#D81923"/>
<path id="Vector_5" d="M55.4556 0.722615L54.5598 1.43463L55.7422 2.92353L56.638 2.21151L55.4556 0.722615Z" fill="#D81923"/>
<path id="Vector_6" d="M2.34702 38.4267L0.403564 39.9706L1.58611 41.4592L3.52956 39.9154L2.34702 38.4267Z" fill="#D81923"/>
<path id="Vector_7" d="M8.95548 42.526L7.29712 43.8439L8.47933 45.3328L10.1377 44.0149L8.95548 42.526Z" fill="#D81923"/>
<path id="Vector_8" d="M7.24872 39.0379L2.05225 43.1677L3.23452 44.6567L8.43099 40.5268L7.24872 39.0379Z" fill="#D81923"/>
<path id="Vector_9" d="M0.894704 44.0882L-0.0012207 44.7999L1.18132 46.2885L2.07725 45.5768L0.894704 44.0882Z" fill="#D81923"/>
</g>
<path id="Vector_10" d="M6.65211 32.0322C5.7639 29.5249 5.28027 26.8261 5.28027 24.0141C5.28027 10.7634 16.017 0.0213623 29.2621 0.0213623C33.8142 0.0213623 38.0703 1.29039 41.6958 3.49378" stroke="url(#paint0_linear_8_12)" stroke-miterlimit="10"/>
<path id="Vector_11" d="M51.0521 13.9803C52.459 17.033 53.2434 20.4319 53.2434 24.0141C53.2434 37.2648 42.5062 48.0069 29.2616 48.0069C23.7319 48.0069 18.6393 46.1343 14.5828 42.9889" stroke="url(#paint1_linear_8_12)" stroke-miterlimit="10"/>
<g id="Group_2">
<path id="Vector_12" d="M69.1531 10.9528C72.3449 10.9528 74.1735 12.5312 74.1735 15.3121C74.1735 18.2361 72.3445 19.9223 69.1531 19.9223H66.6606V23.5101H63.8276V10.9528H69.1531ZM66.661 17.5544H69.01C70.5877 17.5544 71.4845 16.8367 71.4845 15.4018C71.4845 14.0024 70.5882 13.3032 69.01 13.3032H66.661V17.5544Z" fill="#59595B"/>
<path id="Vector_13" d="M81.1668 21.07L80.1807 23.5098H77.2581L82.7091 10.9524H85.6318L90.9931 23.5098H87.9628L86.9767 21.07H81.1668ZM84.0895 13.9127L82.099 18.7923H86.0616L84.0895 13.9127Z" fill="#59595B"/>
<path id="Vector_14" d="M100.98 23.5098H98.1472V19.5274L93.5032 10.9528H96.3541L99.5634 16.5854L102.701 10.9528H105.552L100.98 19.4556V23.5098Z" fill="#59595B"/>
</g>
<g id="Group_3">
<path id="Vector_15" d="M64.8965 37.7029H57.8203C58.183 40.2444 59.9671 41.666 62.9611 41.666C65.2592 41.666 66.7712 41.0608 67.2856 40.7282L68.2533 42.9974C67.8299 43.2393 65.683 44.2981 62.5681 44.2981C58.0625 44.2981 54.5242 41.7267 54.5242 36.4625C54.5242 31.5313 57.8203 28.1426 62.4771 28.1426C66.8314 28.1426 69.1603 30.5931 69.1603 33.9514C69.1603 36.2813 68.011 37.7029 64.8965 37.7029ZM62.4472 30.4422C59.3626 30.4422 57.8207 33.1952 57.7297 35.4944H64.1104C65.5617 35.4944 66.1667 35.0708 66.1667 33.6487C66.1667 32.1062 65.1383 30.4422 62.4472 30.4422Z" fill="#D81923"/>
<path id="Vector_16" d="M74.5127 31.8642C74.059 31.5919 73.6962 31.0474 73.6962 30.3516C73.6962 29.6557 74.1196 29.2321 74.7545 28.8992C75.45 28.5666 76.6292 28.2033 78.4436 28.2033C83.282 28.2033 86.2757 29.8976 86.2757 34.6775V43.7232C85.5498 43.8745 83.191 44.2374 79.4716 44.2374C73.4237 44.2374 72.2744 41.8775 72.2744 39.3664C72.2744 36.2201 74.0585 34.3441 79.29 34.3441C81.1044 34.3441 82.7373 34.4348 83.2214 34.5258V34.3745C83.2214 34.0415 83.191 33.7389 83.1308 33.4671C82.798 31.5612 81.4373 30.5627 78.6252 30.5627C76.2665 30.5631 75.0873 31.471 74.5127 31.8642ZM83.1915 36.7048C82.98 36.6441 81.0446 36.4629 79.6232 36.4629C76.5993 36.4629 75.3898 37.3703 75.3898 39.3066C75.3898 40.9402 76.2669 42.0596 79.5933 42.0596C81.6496 42.0596 82.7988 41.8476 83.1919 41.7267V36.7048H83.1915Z" fill="#D81923"/>
<path id="Vector_17" d="M93.6543 36.2205C93.6543 39.9721 95.9225 41.666 98.7042 41.666C100.7 41.666 102.152 40.7585 102.454 40.5465L103.784 42.6943C103.029 43.2085 101.245 44.2374 98.3415 44.2374C93.8961 44.2374 90.4185 41.3633 90.4185 36.2808C90.4185 31.1983 93.9564 28.2029 98.4624 28.2029C101.214 28.2029 102.545 28.9893 102.998 29.292C103.391 29.6249 103.724 30.0481 103.724 30.6533C103.724 31.1372 103.392 31.8937 102.756 32.3776C102.272 31.8933 100.942 30.7738 98.6743 30.7738C95.8922 30.7751 93.6543 32.6203 93.6543 36.2205Z" fill="#D81923"/>
<path id="Vector_18" d="M110.377 30.4422C110.861 29.716 112.312 28.1431 115.487 28.1431C119.146 28.1431 121.565 30.2306 121.565 34.3147V43.8142H118.451V34.9498C118.451 32.2874 117.422 30.7747 114.641 30.7747C111.828 30.7747 110.377 32.9225 110.377 35.585V43.8138H107.262V22.9391C107.262 22.0014 107.807 21.5171 108.926 21.5171C109.561 21.5171 110.165 21.7291 110.377 21.8197V30.4422H110.377Z" fill="#D81923"/>
</g>
<g id="Group_4">
<path id="Vector_19" d="M23.3481 26.4941C23.3481 26.6616 23.3481 26.8292 23.3481 26.9967C23.3477 30.2165 23.3511 33.4359 23.3443 36.6557C23.3417 37.8769 22.5171 38.8864 21.3405 39.1433C20.1815 39.3959 18.966 38.7933 18.4973 37.6837C18.3516 37.3392 18.2658 36.9412 18.2649 36.5677C18.2504 30.4277 18.2572 24.2873 18.2461 18.1473C18.2452 17.7198 18.3777 17.5809 18.8083 17.5814C24.6037 17.5912 30.3996 17.5831 36.1954 17.5873C37.5536 17.5886 38.6571 18.5491 38.8041 19.8211C38.9544 21.1247 38.1551 22.3194 36.8862 22.6207C36.4902 22.7148 36.0672 22.7195 35.6566 22.7207C33.0364 22.7284 30.4162 22.7229 27.7964 22.7246C27.6046 22.7246 27.4124 22.7472 27.1043 22.7665C27.3047 22.9887 27.4256 23.1362 27.5602 23.27C31.3822 27.0822 35.2063 30.8914 39.0271 34.7049C39.9384 35.6145 40.14 36.7232 39.6055 37.7862C38.8707 39.2485 36.987 39.6631 35.7113 38.6377C35.5122 38.4778 35.3324 38.2927 35.1512 38.1115C31.3749 34.3343 27.5999 30.5559 23.824 26.7783C23.7065 26.6608 23.5814 26.5505 23.46 26.4364C23.4229 26.456 23.3853 26.4748 23.3481 26.4941Z" fill="white"/>
<path id="Vector_20" d="M31.2395 24.7224C31.5638 24.707 31.7453 24.6916 31.9269 24.6912C33.3509 24.6878 34.7748 24.7053 36.1984 24.6809C38.3627 24.6442 40.2554 23.0717 40.6591 21.008C41.1927 18.2802 39.0779 15.6746 36.2971 15.6669C31.6129 15.6537 26.9283 15.6614 22.2441 15.6601C21.091 15.6597 19.9375 15.6473 18.7844 15.6652C18.3764 15.6716 18.235 15.5233 18.2401 15.1181C18.2572 13.7794 18.2547 12.4403 18.2418 11.1012C18.238 10.7233 18.3623 10.572 18.7579 10.5729C24.6665 10.5823 30.5786 10.4668 36.4833 10.6182C41.0133 10.7344 45.2621 14.182 45.7838 19.1214C46.3814 24.7809 42.2309 29.0847 37.5591 29.6946C37.4745 29.7057 37.3912 29.7258 37.307 29.7395C36.6735 29.8408 36.1616 29.7412 35.669 29.2163C34.3741 27.8353 33.0018 26.5274 31.6616 25.1887C31.545 25.072 31.4399 24.9442 31.2395 24.7224Z" fill="white"/>
</g>
</g>
<defs>
<linearGradient id="paint0_linear_8_12" x1="33.3165" y1="-3.0399" x2="6.28506" y2="31.7699" gradientUnits="userSpaceOnUse">
<stop stop-color="#85A555"/>
<stop offset="1" stop-color="#5B824E"/>
</linearGradient>
<linearGradient id="paint1_linear_8_12" x1="51.8182" y1="14.5512" x2="24.0222" y2="50.3456" gradientUnits="userSpaceOnUse">
<stop stop-color="#85A555"/>
<stop offset="1" stop-color="#5B824E"/>
</linearGradient>
<clipPath id="clip0_8_12">
<rect width="123" height="48" fill="white"/>
</clipPath>
</defs>
</svg>
